<svg width="16" height="16" viewBox="0 0 1024 1024" xmlns="http://www.w3.org/2000/svg">
    <path d="M923.428571 1024H100.571429c-55.314286 0-100.571429-45.257143-100.571429-100.571429V100.571429C0 45.257143 45.257143 0 100.571429 0h822.857142c55.314286 0 100.571429 45.257143 100.571429 100.571429v822.857142c0 55.314286-45.257143 100.571429-100.571429 100.571429" fill="#6E88DF" p-id="8447"/>
    <path d="M480.342857 688.026286c-44.507429-6.475429-85.885714-26.702857-118.742857-58.540572-39.771429-38.514286-63.085714-90.171429-65.714286-145.371428-0.228571-1.371429-0.228571-2.742857-0.228571-4.228572V353.942857H247.611429c-18.019429 0-33.165714-14.748571-32.747429-32.763428 0.403429-17.358857 14.532571-31.236571 31.990857-31.236572H367.771429v-65.187428c0-18.019429 14.747429-33.165714 32.762285-32.747429 17.36 0.403429 31.237714 14.532571 31.237715 31.992v65.942857h161.142857v-65.186286c0-18.020571 14.747429-33.165714 32.763428-32.747428 17.358857 0.403429 31.236571 14.531429 31.236572 31.990857v65.942857h120.157714c18.018286 0 33.165714 14.747429 32.746286 32.762286-0.402286 17.36-14.531429 31.237714-31.990857 31.237714h-50.171429v125.942857c0 1.371429-0.114286 2.857143-0.228571 4.228572-2.628571 55.314286-25.942857 106.857143-65.714286 145.371428-32.530286 31.52-73.337143 51.660571-117.370286 58.342857V800c0 17.474286-13.900571 31.611429-31.281143 31.992-17.990857 0.394286-32.718857-14.708571-32.718857-32.704v-111.261714z m29.498286-61.636572a31.209143 31.209143 0 0 1 4.845714-0.019428c38.425143-0.756571 74.726857-15.877714 102.456-42.827429 28.457143-27.542857 44.914286-64.571429 46.4-104.228571 0-0.571429 0.114286-1.142857 0.114286-1.714286V353.942857h-304v123.657143c0 0.571429 0.114286 1.142857 0.114286 1.714286 1.485714 39.657143 18.057143 76.571429 46.4 104.228571 28.020571 27.234286 64.796571 42.388571 103.669714 42.845714z" fill="#FFFFFF" p-id="8448"/>
</svg>
