<svg version="1.1" xmlns="http://www.w3.org/2000/svg" x="0px" y="0px" viewBox="0 0 200 200" fill="#C5C5C5">
    <g>
        <path d="M175.5,200H25.2c-13.5,0-24.5-11-24.5-24.5V25.2c0-13.5,11-24.5,24.5-24.5h150.4c13.5,0,24.5,11,24.5,24.5
		v150.4C200,189,189,200,175.5,200z M25.2,12.9c-6.8,0-12.3,5.5-12.3,12.3v150.4c0,6.8,5.5,12.3,12.3,12.3h150.4
		c6.8,0,12.3-5.5,12.3-12.3V25.2c0-6.8-5.5-12.3-12.3-12.3H25.2z"/>
    </g>
    <path d="M93.8,134.4c-8.7-1.3-16.8-5.2-23.2-11.4c-7.8-7.5-12.3-17.6-12.8-28.4c0-0.3,0-0.5,0-0.8V69.1h-9.4
	c-3.5,0-6.5-2.9-6.4-6.4c0.1-3.4,2.8-6.1,6.2-6.1h23.6V43.9c0-3.5,2.9-6.5,6.4-6.4c3.4,0.1,6.1,2.8,6.1,6.2v12.9h31.5V43.9
	c0-3.5,2.9-6.5,6.4-6.4c3.4,0.1,6.1,2.8,6.1,6.2v12.9h23.5c3.5,0,6.5,2.9,6.4,6.4c-0.1,3.4-2.8,6.1-6.2,6.1h-9.8v24.6
	c0,0.3,0,0.6,0,0.8c-0.5,10.8-5.1,20.9-12.8,28.4c-6.4,6.2-14.3,10.1-22.9,11.4v21.9c0,3.4-2.7,6.2-6.1,6.2
	c-3.5,0.1-6.4-2.9-6.4-6.4L93.8,134.4L93.8,134.4z M99.6,122.3c0.3,0,0.6,0,0.9,0c7.5-0.1,14.6-3.1,20-8.4
	c5.6-5.4,8.8-12.6,9.1-20.4c0-0.1,0-0.2,0-0.3V69.1H70.2v24.2c0,0.1,0,0.2,0,0.3c0.3,7.7,3.5,15,9.1,20.4
	C84.8,119.3,92,122.3,99.6,122.3L99.6,122.3z"/>
</svg>
